REM DIRINDEX 1\2\6,1\2\4\7,1\2\4\8,1\2\5\9,1\3\12,1\3\10\13,1\3\10\14,1\3\10\15,1\3\11\16,1\3\11\17
REM DIRNAME cjc048,folder01,folder02,folder03,folder04,folder05,folder06,folder07,folder08,folder09,folder10,folder11,folder12,folder13,folder14,folder15,folder16
TITLE ""
FILE "193.mp3" MP3
  TRACK 01 AUDIO
    TITLE "12:cjc048_12539"
    INDEX 01 00:00:00
  TRACK 02 AUDIO
    TITLE "16:cjc048_12540"
    INDEX 01 00:01:64
  TRACK 03 AUDIO
    TITLE "17:cjc048_12541"
    INDEX 01 00:03:02
  TRACK 04 AUDIO
    TITLE "16:cjc048_12542"
    INDEX 01 00:04:60
  TRACK 05 AUDIO
    TITLE "17:cjc048_12543"
    INDEX 01 00:05:71
  TRACK 06 AUDIO
    TITLE "16:cjc048_12544"
    INDEX 01 00:07:56
  TRACK 07 AUDIO
    TITLE "17:cjc048_12545"
    INDEX 01 00:09:02
  TRACK 08 AUDIO
    TITLE "16:cjc048_12546"
    INDEX 01 00:10:45
  TRACK 09 AUDIO
    TITLE "17:cjc048_12547"
    INDEX 01 00:11:39
  TRACK 10 AUDIO
    TITLE "16:cjc048_12548"
    INDEX 01 00:12:69
  TRACK 11 AUDIO
    TITLE "17:cjc048_12549"
    INDEX 01 00:14:11
  TRACK 12 AUDIO
    TITLE "16:cjc048_12550"
    INDEX 01 00:16:14
  TRACK 13 AUDIO
    TITLE "17:cjc048_12551"
    INDEX 01 00:17:10
  TRACK 14 AUDIO
    TITLE "16:cjc048_12552"
    INDEX 01 00:18:62
  TRACK 15 AUDIO
    TITLE "17:cjc048_12553"
    INDEX 01 00:19:58
  TRACK 16 AUDIO
    TITLE "16:cjc048_12554"
    INDEX 01 00:21:21
  TRACK 17 AUDIO
    TITLE "17:cjc048_12555"
    INDEX 01 00:22:17
  TRACK 18 AUDIO
    TITLE "16:cjc048_12556"
    INDEX 01 00:24:55
  TRACK 19 AUDIO
    TITLE "17:cjc048_12557"
    INDEX 01 00:25:45
  TRACK 20 AUDIO
    TITLE "16:cjc048_12558"
    INDEX 01 00:27:65
  TRACK 21 AUDIO
    TITLE "17:cjc048_12559"
    INDEX 01 00:28:60
  TRACK 22 AUDIO
    TITLE "16:cjc048_12560"
    INDEX 01 00:30:42
  TRACK 23 AUDIO
    TITLE "17:cjc048_12561"
    INDEX 01 00:31:47
  TRACK 24 AUDIO
    TITLE "16:cjc048_12562"
    INDEX 01 00:33:13
  TRACK 25 AUDIO
    TITLE "17:cjc048_12563"
    INDEX 01 00:34:32
  TRACK 26 AUDIO
    TITLE "16:cjc048_12564"
    INDEX 01 00:35:66
  TRACK 27 AUDIO
    TITLE "17:cjc048_12565"
    INDEX 01 00:36:62
  TRACK 28 AUDIO
    TITLE "16:cjc048_12566"
    INDEX 01 00:38:30
  TRACK 29 AUDIO
    TITLE "17:cjc048_12567"
    INDEX 01 00:39:27
  TRACK 30 AUDIO
    TITLE "16:cjc048_12568"
    INDEX 01 00:41:49
  TRACK 31 AUDIO
    TITLE "17:cjc048_12569"
    INDEX 01 00:42:41
  TRACK 32 AUDIO
    TITLE "16:cjc048_12570"
    INDEX 01 00:44:50
  TRACK 33 AUDIO
    TITLE "17:cjc048_12571"
    INDEX 01 00:45:41
  TRACK 34 AUDIO
    TITLE "16:cjc048_12572"
    INDEX 01 00:48:24
  TRACK 35 AUDIO
    TITLE "17:cjc048_12573"
    INDEX 01 00:49:23
  TRACK 36 AUDIO
    TITLE "16:cjc048_12574"
    INDEX 01 00:50:56
  TRACK 37 AUDIO
    TITLE "17:cjc048_12575"
    INDEX 01 00:51:67
  TRACK 38 AUDIO
    TITLE "16:cjc048_12576"
    INDEX 01 00:54:29
  TRACK 39 AUDIO
    TITLE "17:cjc048_12577"
    INDEX 01 00:55:30
  TRACK 40 AUDIO
    TITLE "16:cjc048_12578"
    INDEX 01 00:56:69
  TRACK 41 AUDIO
    TITLE "17:cjc048_12579"
    INDEX 01 00:57:72
  TRACK 42 AUDIO
    TITLE "16:cjc048_12580"
    INDEX 01 01:00:64
  TRACK 43 AUDIO
    TITLE "17:cjc048_12581"
    INDEX 01 01:01:52
  TRACK 44 AUDIO
    TITLE "16:cjc048_12582"
    INDEX 01 01:03:65
  TRACK 45 AUDIO
    TITLE "17:cjc048_12583"
    INDEX 01 01:05:05
  TRACK 46 AUDIO
    TITLE "16:cjc048_12584"
    INDEX 01 01:07:17
  TRACK 47 AUDIO
    TITLE "17:cjc048_12585"
    INDEX 01 01:08:33
  TRACK 48 AUDIO
    TITLE "16:cjc048_12586"
    INDEX 01 01:09:48
  TRACK 49 AUDIO
    TITLE "17:cjc048_12587"
    INDEX 01 01:10:43
  TRACK 50 AUDIO
    TITLE "16:cjc048_12588"
    INDEX 01 01:13:44
  TRACK 51 AUDIO
    TITLE "17:cjc048_12589"
    INDEX 01 01:14:55
  TRACK 52 AUDIO
    TITLE "16:cjc048_12590"
    INDEX 01 01:16:05
  TRACK 53 AUDIO
    TITLE "17:cjc048_12591"
    INDEX 01 01:17:02
  TRACK 54 AUDIO
    TITLE "16:cjc048_12592"
    INDEX 01 01:19:60
  TRACK 55 AUDIO
    TITLE "17:cjc048_12593"
    INDEX 01 01:20:69
  TRACK 56 AUDIO
    TITLE "16:cjc048_12594"
    INDEX 01 01:24:04
  TRACK 57 AUDIO
    TITLE "17:cjc048_12595"
    INDEX 01 01:25:02
  TRACK 58 AUDIO
    TITLE "16:cjc048_12596"
    INDEX 01 01:26:30
  TRACK 59 AUDIO
    TITLE "17:cjc048_12597"
    INDEX 01 01:27:36
  TRACK 60 AUDIO
    TITLE "16:cjc048_12598"
    INDEX 01 01:30:15
  TRACK 61 AUDIO
    TITLE "17:cjc048_12599"
    INDEX 01 01:31:12
  TRACK 62 AUDIO
    TITLE "16:cjc048_12600"
    INDEX 01 01:33:33
  TRACK 63 AUDIO
    TITLE "17:cjc048_12601"
    INDEX 01 01:34:28
  TRACK 64 AUDIO
    TITLE "16:cjc048_12602"
    INDEX 01 01:36:52
  TRACK 65 AUDIO
    TITLE "17:cjc048_12603"
    INDEX 01 01:37:62
  TRACK 66 AUDIO
    TITLE "16:cjc048_12604"
    INDEX 01 01:40:27
  TRACK 67 AUDIO
    TITLE "17:cjc048_12605"
    INDEX 01 01:41:34
  TRACK 68 AUDIO
    TITLE "16:cjc048_12606"
    INDEX 01 01:42:61
  TRACK 69 AUDIO
    TITLE "17:cjc048_12607"
    INDEX 01 01:43:70
  TRACK 70 AUDIO
    TITLE "16:cjc048_12608"
    INDEX 01 01:45:34
  TRACK 71 AUDIO
    TITLE "17:cjc048_12609"
    INDEX 01 01:46:29
  TRACK 72 AUDIO
    TITLE "16:cjc048_12610"
    INDEX 01 01:47:29
  TRACK 73 AUDIO
    TITLE "17:cjc048_12611"
    INDEX 01 01:48:34
  TRACK 74 AUDIO
    TITLE "16:cjc048_12612"
    INDEX 01 01:50:74
  TRACK 75 AUDIO
    TITLE "17:cjc048_12613"
    INDEX 01 01:52:08
  TRACK 76 AUDIO
    TITLE "16:cjc048_12614"
    INDEX 01 01:53:72
  TRACK 77 AUDIO
    TITLE "17:cjc048_12615"
    INDEX 01 01:55:01
  TRACK 78 AUDIO
    TITLE "16:cjc048_12616"
    INDEX 01 01:57:72
  TRACK 79 AUDIO
    TITLE "17:cjc048_12617"
    INDEX 01 01:58:72
  TRACK 80 AUDIO
    TITLE "16:cjc048_12618"
    INDEX 01 02:01:11
  TRACK 81 AUDIO
    TITLE "17:cjc048_12619"
    INDEX 01 02:02:09
  TRACK 82 AUDIO
    TITLE "16:cjc048_12620"
    INDEX 01 02:03:57
  TRACK 83 AUDIO
    TITLE "17:cjc048_12621"
    INDEX 01 02:04:59
  TRACK 84 AUDIO
    TITLE "16:cjc048_12622"
    INDEX 01 02:07:47
  TRACK 85 AUDIO
    TITLE "17:cjc048_12623"
    INDEX 01 02:08:54
  TRACK 86 AUDIO
    TITLE "16:cjc048_12624"
    INDEX 01 02:10:22
  TRACK 87 AUDIO
    TITLE "17:cjc048_12625"
    INDEX 01 02:11:21
  TRACK 88 AUDIO
    TITLE "16:cjc048_12626"
    INDEX 01 02:12:27
  TRACK 89 AUDIO
    TITLE "17:cjc048_12627"
    INDEX 01 02:13:32
  TRACK 90 AUDIO
    TITLE "16:cjc048_12628"
    INDEX 01 02:15:09
  TRACK 91 AUDIO
    TITLE "17:cjc048_12629"
    INDEX 01 02:16:07
  TRACK 92 AUDIO
    TITLE "16:cjc048_12630"
    INDEX 01 02:17:47
  TRACK 93 AUDIO
    TITLE "17:cjc048_12631"
    INDEX 01 02:18:45
  TRACK 94 AUDIO
    TITLE "16:cjc048_12632"
    INDEX 01 02:20:22
  TRACK 95 AUDIO
    TITLE "17:cjc048_12633"
    INDEX 01 02:21:30
  TRACK 96 AUDIO
    TITLE "16:cjc048_12634"
    INDEX 01 02:22:64
  TRACK 97 AUDIO
    TITLE "17:cjc048_12635"
    INDEX 01 02:23:60
  TRACK 98 AUDIO
    TITLE "16:cjc048_12636"
    INDEX 01 02:26:52
  TRACK 99 AUDIO
    TITLE "17:cjc048_12637"
    INDEX 01 02:27:34
  TRACK 100 AUDIO
    TITLE "0:"
    INDEX 01 02:28:45
